# AST/ASF file generated using VICON BodyLanguage
# -----------------------------------------------
:version 1.10
:name VICON
:units
  mass 1.0
  length 0.45
  angle deg
:documentation
   .ast/.asf automatically generated from VICON data using
   VICON BodyBuilder and BodyLanguage model FoxedUp or BRILLIANT.MOD
:root
   order TX TY TZ RX RY RZ
   axis XYZ
   position 0 0 0  
   orientation 0 0 0 
:bonedata
  begin
     id 1 
     name lhipjoint
     direction 0.661853 -0.702389 0.261917 
     length 2.64193 
     axis 0 0 0  XYZ
  end
  begin
     id 2 
     name lfemur
     direction 0.34202 -0.939693 0  
     length 7.01722  
     axis 0 0 20  XYZ
    dof rx ry rz
    limits (-160.0 20.0)
           (-70.0 70.0)
           (-60.0 70.0)
  end
  begin
     id 3 
     name ltibia
     direction 0.34202 -0.939693 0   
     length 8.25008   
     axis 0 0 20   XYZ
    dof rx
    limits (-10.0 170.0)
  end
  begin
     id 4 
     name lfoot
     direction 0.0709916 -0.195048 0.978221   
     length 2.31941   
     axis -90 7.62852e-016 20   XYZ
    dof rx rz
    limits (-45.0 90.0)
           (-70.0 20.0)
  end
  begin
     id 5 
     name ltoes
     direction 1.53586e-011 -4.22017e-011 1   
     length 1.16486   
     axis -90 7.62852e-016 20   XYZ
    dof rx
    limits (-90.0 20.0)
  end
  begin
     id 6 
     name rhipjoint
     direction -0.638185 -0.721362 0.268992   
     length 2.57244  
     axis 0 0 0  XYZ 
  end
  begin
     id 7 
     name rfemur
     direction -0.34202 -0.939693 0   
     length 7.07017   
     axis 0 0 -20   XYZ
    dof rx ry rz
    limits (-160.0 20.0)
           (-70.0 70.0)
           (-70.0 60.0)
  end
  begin
     id 8 
     name rtibia
     direction -0.34202 -0.939693 0   
     length 8.20386   
     axis 0 0 -20   XYZ
    dof rx
    limits (-10.0 170.0)
 end
 begin
     id 9 
     name rfoot
     direction -0.0822429 -0.225961 0.970658   
     length 2.32215  
     axis -90 -7.62852e-016 -20   XYZ
    dof rx rz
    limits (-45.0 90.0)
           (-20.0 70.0)
  end
  begin
     id 10 
     name rtoes
     direction -1.53597e-011 -4.21689e-011 1   
     length 1.16333   
     axis -90 -7.62852e-016 -20   XYZ
    dof rx
    limits (-90.0 20.0)
  end
  begin
     id 11 
     name lowerback
     direction -0.0131557 0.998589 -0.0514484   
     length 2.14993   
     axis 0 0 0   XYZ
    dof rx ry rz
    limits (-20.0 45.0)
           (-30.0 30.0)
           (-30.0 30.0)
  end
  begin
     id 12 
     name upperback
     direction -0.000776481 0.999993 0.00352685   
     length 2.15301   
     axis 0 0 0   XYZ
    dof rx ry rz
    limits (-20.0 45.0)
           (-30.0 30.0)
           (-30.0 30.0)
  end
  begin
     id 13 
     name thorax
     direction 0.00438186 0.999609 0.0276143   
     length 2.15424   
     axis 0 0 0   XYZ
    dof rx ry rz
    limits (-20.0 45.0)
           (-30.0 30.0)
           (-30.0 30.0)
  end
  begin
     id 14 
     name lowerneck
     direction -0.0488006 0.998094 0.0377807   
     length 1.90481   
     axis 0 0 0   XYZ
    dof rx ry rz
    limits (-20.0 45.0)
           (-30.0 30.0)
           (-30.0 30.0)
  end
  begin
     id 15 
     name upperneck
     direction 0.0443769 0.990702 -0.12861   
     length 1.91305   
     axis 0 0 0   XYZ
    dof rx ry rz
    limits (-20.0 45.0)
           (-30.0 30.0)
           (-30.0 30.0)
  end
  begin
     id 16
     name head
     direction 0.0165599 0.998647 -0.0492982  
     length 1.92369  
     axis 0 0 0   XYZ
    dof rx ry rz
    limits (-20.0 45.0)
           (-30.0 30.0)
           (-30.0 30.0)
  end
  begin
     id 17 
     name lclavicle
     direction 0.911936 0.410197 -0.0105506  
     length 3.52622  
     axis 0 0 0   XYZ
    dof ry rz
    limits (-20.0 10.0)
           (0.0 20.0)
  end
  begin
     id 18 
     name lhumerus
     direction 1 -4.48974e-011 -2.48591e-028   
     length 5.47651   
     axis 180 -30 -90   XYZ
    dof rx ry rz
    limits (-60.0 90.0)
           (-90.0 90.0)
           (-90.0 90.0)
  end
  begin
     id 19
     name lradius
     direction 1 -4.48938e-011 -4.40099e-027   
     length 3.09058   
     axis 180 -30 -90   XYZ
    dof rx
    limits (-10.0 170.0)
  end
  begin
     id 20
     name lwrist
     direction 1 -4.49042e-011 -2.99852e-027   
     length 1.54529   
     axis 1.95339e-015 90 90   XYZ
    dof ry
    limits (-180.0 0.0)
 end
  begin
     id 21 
     name lhand
     direction 1 -4.48815e-011 -5.98193e-027   
     length 0.771611   
     axis 3.82337e-015 90 90   XYZ
    dof rx rz
    limits (-90.0 90.0)
           (-45.0 45.0)
  end
  begin
     id 22 
     name lfingers
     direction 1 -4.49034e-011 -1.1993e-026   
     length 0.622093   
     axis 7.64668e-015 90 90   XYZ
    dof rx
    limits (0.0 90.0)
  end
  begin
     id 23
     name lthumb
     direction 0.707107 -6.34867e-011 0.707107   
     length 0.893204   
     axis -90 45 -1.62303e-014   XYZ
    dof rx rz
    limits (-45.0 45.0)
           (-45.0 45.0)
  end
  begin
     id 24 
     name rclavicle
     direction -0.93442 0.355634 -0.0195692   
     length 3.62463  
     axis 0 0 0   XYZ 
    dof ry rz
    limits (-10.0 20.0)
           (-20.0 0.0)
  end
  begin
     id 25 
     name rhumerus
     direction -1 -4.48957e-011 -1.19147e-027  
     length 5.14182   
     axis 180 30 90   XYZ
    dof rx ry rz
    limits (-90.0 60.0)
           (-90.0 90.0)
           (-90.0 90.0)
  end
  begin
     id 26 
     name rradius
     direction -1 -4.48952e-011 -3.81062e-027   
     length 3.35565   
     axis 180 30 90   XYZ
    dof rx
    limits (-10.0 170.0)
  end
  begin
     id 27 
     name rwrist
     direction -1 -4.48973e-011 -2.99621e-027   
     length 1.67782   
     axis 1.95339e-015 -90 -90   XYZ
    dof ry
    limits (-180.0 0.0)
  end
  begin
     id 28
     name rhand
     direction -1 -4.48895e-011 -5.98727e-027   
     length 0.801042   
     axis 3.82337e-015 -90 -90   XYZ
    dof rx rz
    limits (-90.0 90.0)
           (-45.0 45.0)
  end
  begin
     id 29
     name rfingers
     direction -1 -4.49065e-011 -1.19972e-026   
     length 0.645821   
     axis 7.64668e-015 -90 -90   XYZ
    dof rx
    limits (0.0 90.0)
  end
  begin
     id 30
     name rthumb
     direction -0.707107 -6.34957e-011 0.707107   
     length 0.927273   
     axis -90 -45 1.62303e-014   XYZ
    dof rx rz
    limits (-45.0 45.0)
           (-45.0 45.0)
  end
:hierarchy
  begin
    root lhipjoint rhipjoint lowerback
    lhipjoint lfemur
    lfemur ltibia
    ltibia lfoot
    lfoot ltoes
    rhipjoint rfemur
    rfemur rtibia
    rtibia rfoot
    rfoot rtoes
    lowerback upperback
    upperback thorax
    thorax lowerneck lclavicle rclavicle
    lowerneck upperneck
    upperneck head
    lclavicle lhumerus
    lhumerus lradius
    lradius lwrist
    lwrist lhand lthumb
    lhand lfingers
    rclavicle rhumerus
    rhumerus rradius
    rradius rwrist
    rwrist rhand rthumb
    rhand rfingers
  end

#!OML:ASF E:\Style4\Style4.ASF
:FULLY-SPECIFIED
:DEGREES
287
root 0.303122 17.6623 -2.09475 1.01618 -28.498 1.24648
lowerback 14.5414 2.12664 -3.11945
upperback 9.7695 2.26019 -3.21526
thorax 2.21053 1.00946 -1.89592
lowerneck 5.27337 2.60836 -0.427644
upperneck 6.97153 3.29876 2.27857
head 1.22602 1.63267 0.754568
rclavicle 4.53229e-014 3.4191e-014
rhumerus 73.1858 3.85022 -38.4938
rradius 44.7473
rwrist -5.18988
rhand 47.8057 -1.51316
rfingers 7.12502
rthumb 68.4539 -1.62864
lclavicle 4.53229e-014 3.4191e-014
lhumerus 74.9415 14.8792 52.5078
lradius 44.9885
lwrist -8.76142
lhand 30.4151 48.3953
lfingers 7.12502
lthumb 54.0797 67.1792
rfemur -24.9593 11.4348 18.6515
rtibia 33.549
rfoot -10.0174 -5.2983
rtoes -11.647
lfemur -16.813 11.9036 -18.9094
ltibia 35.8764
lfoot -22.1176 18.5817
ltoes -12.2059
288
root 0.318731 17.6706 -2.09301 1.05484 -28.7399 1.29203
lowerback 14.4855 2.22188 -3.14736
upperback 9.76073 2.38326 -3.30613
thorax 2.23592 1.07196 -1.98925
lowerneck 5.35206 2.6401 -0.454237
upperneck 6.81587 3.34008 2.35333
head 1.16205 1.65235 0.778385
rclavicle 2.62396e-014 -7.95139e-015
rhumerus 73.1444 3.77367 -38.5631
rradius 44.7275
rwrist -5.31943
rhand 47.6884 -1.59175
rfingers 7.12502
rthumb 68.3707 -1.91592
lclavicle 2.62396e-014 -7.95139e-015
lhumerus 74.9133 14.7532 52.9041
lradius 44.9945
lwrist -9.23088
lhand 30.3986 47.8157
lfingers 7.12502
lthumb 54.0649 66.6097
rfemur -24.9913 11.5446 18.554
rtibia 33.3857
rfoot -9.91272 -5.15242
rtoes -11.5796
lfemur -16.765 12.1434 -19.0181
ltibia 35.7099
lfoot -22.0514 18.5998
ltoes -12.094
289
root 0.333185 17.6796 -2.09199 1.1478 -28.8892 1.25525
lowerback 14.4227 2.25037 -3.12793
upperback 9.76983 2.42586 -3.34526
thorax 2.28224 1.09473 -2.04411
lowerneck 5.2071 2.6242 -0.542226
upperneck 6.91795 3.31473 2.33358
head 1.21735 1.63888 0.790847
rclavicle 3.37934e-014 7.95139e-015
rhumerus 73.2273 3.74046 -38.798
rradius 44.6728
rwrist -5.27657
rhand 47.653 -1.42434
rfingers 7.12502
rthumb 68.3455 -1.81136
lclavicle 3.37934e-014 7.95139e-015
lhumerus 74.7859 14.8278 52.9426
lradius 45.0413
lwrist -9.49167
lhand 30.1669 47.5767
lfingers 7.12502
lthumb 53.8569 66.511
rfemur -25.0077 11.5623 18.5413
rtibia 33.2072
rfoot -9.79024 -5.06881
rtoes -12.1134
lfemur -16.7527 12.33 -19.0437
ltibia 35.5449
lfoot -22.0563 18.5513
ltoes -11.8136
290
root 0.34645 17.6877 -2.09249 1.17881 -29.0016 1.32762
lowerback 14.3701 2.26159 -3.25813
upperback 9.78632 2.42875 -3.38092
thorax 2.325 1.09014 -2.00705
lowerneck 5.07212 2.61736 -0.648646
upperneck 7.01731 3.3035 2.25729
head 1.2707 1.63118 0.788566
rclavicle -4.53229e-014 1.19271e-014
rhumerus 73.4197 3.76445 -39.0958
rradius 44.5881
rwrist -5.08925
rhand 47.5985 -1.37072
rfingers 7.12502
rthumb 68.3067 -1.85389
lclavicle -4.53229e-014 1.19271e-014
lhumerus 74.4918 15.0733 52.7367
lradius 45.1724
lwrist -9.62553
lhand 29.9944 47.5377
lfingers 7.12502
lthumb 53.702 66.5753
rfemur -25.0323 11.5956 18.4161
rtibia 33.0281
rfoot -9.6355 -5.00367
rtoes -12.5378
lfemur -16.757 12.5184 -19.1728
ltibia 35.3837
lfoot -21.9168 18.6299
ltoes -12.5561
291
root 0.360219 17.6948 -2.09135 1.23327 -29.1491 1.36369
lowerback 14.3258 2.3214 -3.36396
upperback 9.75976 2.49668 -3.39215
thorax 2.31755 1.11942 -1.96665
lowerneck 5.15399 2.60646 -0.638805
upperneck 6.99483 3.29688 2.08534
head 1.2529 1.62577 0.732044
rclavicle 0 -3.97569e-014
rhumerus 73.5204 3.78488 -39.2745
rradius 44.4881
rwrist -4.98665
rhand 47.4939 -1.36133
rfingers 7.12502
rthumb 68.232 -2.02815
lclavicle 0 -3.97569e-014
lhumerus 74.2035 15.1708 52.5902
lradius 45.2349
lwrist -9.79549
lhand 30.1358 47.5497
lfingers 7.12502
lthumb 53.829 66.5026
rfemur -25.0634 11.6693 18.309
rtibia 32.8463
rfoot -9.53425 -4.85478
rtoes -12.425
lfemur -16.7554 12.7319 -19.2641
ltibia 35.2297
lfoot -21.8328 18.5836
ltoes -12.7762
292
root 0.373055 17.6987 -2.08989 1.27568 -29.2834 1.36359
lowerback 14.3179 2.39927 -3.4288
upperback 9.71312 2.59016 -3.3845
thorax 2.26986 1.16351 -1.9341
lowerneck 5.28702 2.57837 -0.695593
upperneck 6.98104 3.26021 2.00479
head 1.22739 1.60456 0.714356
rclavicle 1.98785e-014 -2.3059e-014
rhumerus 73.5066 3.81059 -39.4054
rradius 44.4541
rwrist -4.90457
rhand 47.3324 -1.27128
rfingers 7.12502
rthumb 68.1162 -2.21919
lclavicle 1.98785e-014 -2.3059e-014
lhumerus 73.9495 15.1263 52.5386
lradius 45.2302
lwrist -10.0929
lhand 30.2262 47.4287
lfingers 7.12502
lthumb 53.9102 66.3272
rfemur -25.07 11.7752 18.241
rtibia 32.6803
rfoot -9.45163 -4.7608
rtoes -12.273
lfemur -16.7157 12.8784 -19.3084
ltibia 35.0645
lfoot -21.9372 18.5313
ltoes -12.3987
293
root 0.385794 17.7026 -2.08933 1.28462 -29.3099 1.40052
lowerback 14.331 2.47729 -3.44253
upperback 9.70402 2.68952 -3.41354
thorax 2.25552 1.21374 -1.96977
lowerneck 5.36984 2.49428 -0.720449
upperneck 6.91034 3.14787 2.02886
head 1.19232 1.54805 0.724392
rclavicle 1.55052e-014 -4.13472e-014
rhumerus 73.4173 3.67431 -39.5386
rradius 44.4377
rwrist -4.92787
rhand 47.2957 -1.30352
rfingers 7.12502
rthumb 68.0898 -2.31499
lclavicle 1.55052e-014 -4.13472e-014
lhumerus 73.8804 14.9503 52.481
lradius 45.155
lwrist -10.3995
lhand 30.0823 47.3453
lfingers 7.12502
lthumb 53.781 66.3304
rfemur -25.0336 11.864 18.1328
rtibia 32.5095
rfoot -9.35521 -4.80119
rtoes -12.1504
lfemur -16.6727 12.954 -19.3902
ltibia 34.9085
lfoot -21.9912 18.5155
ltoes -12.1865
294
root 0.397657 17.709 -2.08758 1.28836 -29.2562 1.47347
lowerback 14.3178 2.57161 -3.45842
upperback 9.70773 2.81275 -3.4455
thorax 2.26939 1.27589 -2.00901
lowerneck 5.48419 2.36491 -0.575126
upperneck 6.80755 2.98824 1.93496
head 1.14674 1.4708 0.66946
rclavicle 2.3059e-014 -1.98785e-014
rhumerus 73.2382 3.44466 -39.6634
rradius 44.4182
rwrist -4.81896
rhand 47.3515 -1.24311
rfingers 7.12502
rthumb 68.1299 -2.15805
lclavicle 2.3059e-014 -1.98785e-014
lhumerus 73.9291 14.7013 52.373
lradius 45.0678
lwrist -10.461
lhand 29.9641 47.3674
lfingers 7.12502
lthumb 53.6747 66.4231
rfemur -24.9858 11.8875 17.9901
rtibia 32.3387
rfoot -9.28047 -4.86684
rtoes -12.059
lfemur -16.6566 12.957 -19.5152
ltibia 34.76
lfoot -22.13 18.4082
ltoes -11.6681
295
root 0.40696 17.7167 -2.08619 1.36438 -29.2368 1.39863
lowerback 14.265 2.67315 -3.39903
upperback 9.69264 2.95621 -3.43759
thorax 2.28516 1.35081 -2.04929
lowerneck 5.66444 2.23559 -0.407902
upperneck 6.75805 2.82835 1.84047
head 1.10706 1.39345 0.610798
rclavicle -6.44062e-014 3.18055e-014
rhumerus 73.0153 3.2748 -39.7168
rradius 44.4514
rwrist -4.71231
rhand 47.2166 -1.39738
rfingers 7.12502
rthumb 68.0328 -2.54505
lclavicle -6.44062e-014 3.18055e-014
lhumerus 73.8756 14.4671 52.2312
lradius 45.0352
lwrist -10.3743
lhand 29.9541 47.3725
lfingers 7.12502
lthumb 53.6656 66.4341
rfemur -24.9384 11.914 18.012
rtibia 32.1649
rfoot -9.15699 -4.90004
rtoes -12.3207
lfemur -16.6503 13.0424 -19.4868
ltibia 34.6247
lfoot -22.1246 18.3209
ltoes -11.633
296
root 0.416908 17.7229 -2.0861 1.42547 -29.1647 1.3326
lowerback 14.2609 2.73225 -3.33184
upperback 9.67024 3.04163 -3.42094
thorax 2.26655 1.3971 -2.07985
lowerneck 5.83955 2.1381 -0.37307
upperneck 6.72565 2.70185 1.81618
head 1.07042 1.33026 0.595876
rclavicle 5.12864e-014 -9.54166e-015
rhumerus 72.8417 3.14276 -39.6224
rradius 44.477
rwrist -4.8113
rhand 47.0474 -1.5374
rfingers 7.12502
rthumb 67.9105 -2.97395
lclavicle 5.12864e-014 -9.54166e-015
lhumerus 73.7925 14.2345 52.1473
lradius 44.971
lwrist -10.4263
lhand 29.8169 47.2359
lfingers 7.12502
lthumb 53.5422 66.3788
rfemur -24.8761 11.9677 18.021
rtibia 31.9769
rfoot -9.02877 -5.00414
rtoes -12.5838
lfemur -16.6612 13.0809 -19.4646
ltibia 34.5148
lfoot -21.8694 18.3102
ltoes -12.1066
297
root 0.427509 17.7289 -2.08518 1.46345 -29.0644 1.29782
lowerback 14.2568 2.79387 -3.22692
upperback 9.68674 3.13555 -3.43606
thorax 2.29403 1.4498 -2.16519
lowerneck 5.89957 2.02391 -0.286258
upperneck 6.6902 2.55678 1.78987
head 1.05248 1.25983 0.573621
rclavicle -4.21423e-014 2.14687e-014
rhumerus 72.7134 2.90657 -39.6376
rradius 44.3801
rwrist -4.77207
rhand 47.0401 -1.51961
rfingers 7.12502
rthumb 67.9052 -2.96855
lclavicle -4.21423e-014 2.14687e-014
lhumerus 73.8898 13.9883 52.1254
lradius 44.8984
lwrist -10.4738
lhand 29.715 47.2517
lfingers 7.12502
lthumb 53.4505 66.4546
rfemur -24.802 11.987 18.001
rtibia 31.7794
rfoot -8.88491 -5.11483
rtoes -12.9297
lfemur -16.6819 13.0739 -19.48
ltibia 34.4388
lfoot -21.6232 18.3615
ltoes -12.5749
